<svg width="173" height="170" viewBox="0 0 173 170" fill="none" xmlns="http://www.w3.org/2000/svg">
<g clip-path="url(#clip0_2351_5486)">
<path d="M41.98 42.4522L31.5502 29.1377L36.9504 24.9174C38.0393 24.0662 39.0345 23.5086 39.9137 23.2625C40.7929 23.0163 41.6229 23.0283 42.446 23.2828C43.2668 23.5572 43.9072 23.994 44.3873 24.5953C44.8295 25.172 45.0803 25.8287 45.1374 26.5853C45.1946 27.3419 45.0024 28.1517 44.5855 28.9768C45.6496 28.5284 46.6154 28.4136 47.5253 28.617C48.4352 28.8204 49.1913 29.3106 49.8136 30.0901C50.3114 30.7136 50.62 31.397 50.7573 32.1626C50.8945 32.9282 50.8582 33.6135 50.6685 34.2208C50.4787 34.8281 50.1221 35.4775 49.6052 36.109C49.0884 36.7404 48.3823 37.4318 47.4715 38.1407L42.0023 42.4344L41.98 42.4522ZM37.8413 33.2493L40.9522 30.8202C41.7962 30.1646 42.3619 29.64 42.6493 29.2464C43.0303 28.7417 43.2088 28.2345 43.2249 27.7294C43.241 27.2243 43.0523 26.7368 42.6767 26.2892C42.3211 25.8438 41.9075 25.5541 41.4181 25.3979C40.9287 25.2417 40.4169 25.2857 39.9094 25.4721C39.3796 25.6763 38.6136 26.1784 37.5692 26.9941L34.701 29.2476L37.839 33.2693L37.8413 33.2493ZM42.6461 39.4044L46.2247 36.6019C46.846 36.1241 47.2513 35.764 47.4607 35.5239C47.8327 35.0992 48.1202 34.7057 48.2674 34.2964C48.4347 33.8893 48.4819 33.4688 48.4133 32.9948C48.3448 32.5208 48.1517 32.0733 47.8138 31.6502C47.4227 31.1603 46.9535 30.8238 46.3818 30.6786C45.8301 30.5357 45.2381 30.5707 44.6438 30.8082C44.0494 31.0457 43.288 31.5078 42.3749 32.2368L39.0413 34.8437L42.6238 39.4221L42.6461 39.4044Z" fill="#F9F9F9"/>
<path d="M137.111 54.0284L151.577 45.2686L152.825 47.3348L138.36 56.0946L137.111 54.0284Z" fill="#F9F9F9"/>
<path d="M58.1142 142.518L49.1862 156.866L37.9847 149.893L39.0456 148.207L48.2011 153.897L50.9445 149.501L42.3761 144.181L43.4169 142.493L51.9831 147.833L55.0252 142.942L45.5095 137.03L46.5703 135.344L58.132 142.54L58.1142 142.518Z" fill="#F9F9F9"/>
<path d="M105.4 28.353L102.766 27.7941C102.774 27.1866 102.443 21.8169 102.434 21.7146C102.377 20.7755 101.828 19.8827 100.847 19.5902C100.494 19.4897 95.3234 18.4033 95.3234 18.4033L93.7363 25.8694L91.3781 25.382L94.89 8.7033L102.556 10.3129C103.647 10.5365 104.703 10.878 105.622 11.5486C107.291 12.7496 107.691 14.0718 107.119 16.2786C106.547 18.4854 104.446 18.9595 103.516 18.9364C103.436 18.9274 103.402 19.0453 103.48 19.0743C104.872 19.8589 104.899 22.1531 104.983 23.3993C105.138 25.6269 105.363 28.3284 105.363 28.3284L105.4 28.353ZM95.7794 16.3254C95.7794 16.3254 99.9729 17.2618 101.032 17.4008C103.028 17.6854 104.19 17.2682 104.465 15.3526C104.633 14.2156 104.421 12.8536 101.687 12.2836C100.145 11.9282 96.8323 11.273 96.8323 11.273L95.7571 16.3432L95.7794 16.3254Z" fill="#F9F9F9"/>
<path d="M22.817 85.5188L23.1883 88.176C22.6184 88.3757 17.6742 90.5182 17.5874 90.5693C16.7148 90.9378 16.0753 91.7583 16.1411 92.7998C16.1607 93.1669 16.9145 98.3813 16.9145 98.3813L24.4744 97.3228L24.8148 99.7129L7.94114 102.1L6.84501 94.3328C6.68588 93.22 6.6469 92.1207 6.95282 91.0196C7.51995 89.0353 8.6044 88.2241 10.881 87.9927C13.1576 87.7613 14.3106 89.5937 14.5991 90.4574C14.6301 90.542 14.7325 90.5332 14.7415 90.4531C14.9989 88.8801 17.1581 88.0678 18.289 87.566C20.3371 86.6601 22.797 85.5166 22.797 85.5166L22.817 85.5188ZM14.7936 98.6707C14.7936 98.6707 14.257 94.4134 14.011 93.3518C13.6035 91.3799 12.7967 90.4378 10.9094 90.8143C9.76764 91.0512 8.57875 91.7087 8.9588 94.4683C9.14864 96.0306 9.66608 99.3733 9.66608 99.3733L14.7958 98.6507L14.7936 98.6707Z" fill="#F9F9F9"/>
<path d="M147.215 95.7739L162.768 100.64L161.733 103.91C161.608 104.301 161.251 104.586 160.864 104.603L146.213 105.617L157.672 114.809C157.99 115.048 158.123 115.488 157.998 115.88L156.963 119.15L141.409 114.284L142.101 112.091L155.833 116.387L143.86 106.529L144.84 103.395L160.274 102.266L146.543 97.9695L147.235 95.7761L147.215 95.7739Z" fill="#F9F9F9"/>
<path d="M115.523 142.1L120.768 157.53L117.522 158.626C117.122 158.764 116.69 158.634 116.439 158.342L106.973 147.103L106.32 161.79C106.315 162.195 106.032 162.549 105.632 162.687L102.386 163.783L97.141 148.353L99.3335 147.605L103.971 161.223L104.856 145.73L107.954 144.678L117.967 156.466L113.33 142.848L115.523 142.1Z" fill="#F9F9F9"/>
</g>
<defs>
<clipPath id="clip0_2351_5486">
<rect width="156" height="153.26" fill="white" transform="translate(17.073) rotate(6.39595)"/>
</clipPath>
</defs>
</svg>
