<svg width="338" height="45" viewBox="0 0 338 45" fill="none" xmlns="http://www.w3.org/2000/svg">
<path d="M86.011 44.0107H78.9308C78.6377 42.4728 74.8431 29.0841 74.766 28.8278C74.1181 26.4758 72.2208 24.5459 69.4905 24.3046C68.5341 24.2292 54.605 24.2594 54.605 24.2594V43.9504H48.2344V0H68.9352C71.8968 0 74.8122 0.301546 77.5425 1.49265C82.4941 3.66379 84.2525 6.73956 83.9903 12.6499C83.7127 18.8014 78.5452 20.8368 76.1388 21.259C75.9383 21.2892 75.9074 21.5756 76.108 21.6359C80.1185 22.8874 81.4451 28.677 82.3552 31.7679C83.9749 37.3013 86.0419 44.0107 86.0419 44.0107H86.011ZM54.5896 18.7411C54.5896 18.7411 65.9272 18.8919 68.7655 18.6808C74.0872 18.334 76.8484 16.6604 76.5399 11.6698C76.3548 8.68453 75.059 5.36752 67.7012 5.36752C63.5363 5.29214 54.605 5.36752 54.605 5.36752V18.726L54.5896 18.7411Z" fill="#0A0A0A"/>
<path d="M337.999 44.0399H330.919C330.626 42.502 326.831 29.1134 326.754 28.8571C326.106 26.505 324.193 24.5299 321.463 24.3037C320.507 24.2283 306.578 24.2585 306.578 24.2585V43.9947H300.207V0.0141602H320.908C323.869 0.0141602 326.769 0.330784 329.515 1.50681C334.328 3.58748 336.225 6.75372 335.963 12.664C335.685 18.8156 330.518 20.851 328.111 21.2732C327.911 21.3033 327.88 21.5898 328.081 21.6501C332.091 22.9015 333.294 28.6309 334.204 31.7368C335.824 37.2702 338.015 44.0248 338.015 44.0248L337.999 44.0399ZM306.578 18.7854C306.578 18.7854 318.609 18.8457 320.815 18.71C326.137 18.3632 328.836 16.6897 328.528 11.7142C328.343 8.72884 327.047 5.41184 319.689 5.41184C315.524 5.33645 306.593 5.41184 306.593 5.41184V18.7703L306.578 18.7854Z" fill="#0A0A0A"/>
<path d="M19.9758 0.029541C28.3518 0.029541 33.9974 4.55273 33.9049 11.4732C33.8278 17.4137 29.0768 20.2331 27.1023 20.8362C26.9172 20.8965 26.9635 21.1529 27.1486 21.1981C32.9177 22.2686 36.1878 26.0982 36.1878 31.5713C36.1878 40.0598 30.5576 44.0101 18.1556 44.0101H0V0.029541H19.9758ZM6.37066 5.36691V18.7706H20.1763C23.246 18.7706 27.5497 16.0266 27.5497 11.7748C27.5497 8.26175 24.2641 5.36691 20.1763 5.36691H6.37066ZM6.37066 24.304V38.5219H15.7493C25.6832 38.8536 29.4932 36.0945 29.4932 31.119C29.4932 26.641 25.6061 23.9723 14.4227 24.2889H6.38609L6.37066 24.304Z" fill="#0A0A0A"/>
<path d="M98.7695 0.029541H105.14V44.0101H98.7695V0.029541Z" fill="#0A0A0A"/>
<path d="M119.871 44.0101V0.029541H129.358C130.499 0.029541 131.533 0.70802 131.934 1.7182L146.696 38.6727L161.442 1.7182C161.843 0.70802 162.862 0.029541 164.018 0.029541H173.49V44.0101H167.119V5.18598L151.015 44.0101H141.945L126.242 5.18598V44.0101H119.871Z" fill="#0A0A0A"/>
<path d="M186.895 44.0101V0.029541H196.381C197.523 0.029541 198.556 0.70802 198.957 1.7182L213.719 38.6727L228.481 1.7182C228.882 0.70802 229.9 0.029541 231.057 0.029541H240.528V44.0101H234.158V5.18598L218.054 44.0101H208.984L193.281 5.18598V44.0101H186.91H186.895Z" fill="#0A0A0A"/>
<path d="M253.918 44.0101V0.029541H286.758V5.38199H260.288V18.7706H285.478L285.432 24.2286H260.242L260.273 38.6727H286.743V44.0101H253.902H253.918Z" fill="#0A0A0A"/>
</svg>
